<svg width="24" height="24" viewBox="0 0 24 24" fill="none" xmlns="http://www.w3.org/2000/svg">
<path d="M17.9712 14.0598L12.7894 3.69619C12.7619 3.64123 12.7167 3.59715 12.6611 3.5711C12.6054 3.54506 12.5426 3.53857 12.4828 3.55269C12.423 3.56681 12.3697 3.60071 12.3316 3.6489C12.2935 3.69708 12.2727 3.75674 12.2727 3.81818V12.6573C12.2727 12.7101 12.2881 12.7617 12.3169 12.806C12.3457 12.8502 12.3867 12.8852 12.4349 12.9065C12.6649 13.0065 12.8534 13.1827 12.9687 13.4053C13.084 13.628 13.1191 13.8836 13.0681 14.1291C13.017 14.3746 12.8829 14.5951 12.6884 14.7533C12.4939 14.9115 12.2508 14.9979 12 14.9979C11.7492 14.9979 11.5061 14.9115 11.3116 14.7533C11.1171 14.5951 10.983 14.3746 10.9319 14.1291C10.8809 13.8836 10.916 13.628 11.0313 13.4053C11.1466 13.1827 11.3351 13.0065 11.5651 12.9065C11.6133 12.8852 11.6544 12.8502 11.6831 12.806C11.7119 12.7617 11.7273 12.7101 11.7273 12.6573V3.81818C11.7273 3.75674 11.7066 3.69708 11.6684 3.6489C11.6303 3.60071 11.577 3.56681 11.5172 3.55269C11.4574 3.53857 11.3946 3.54506 11.3389 3.5711C11.2833 3.59715 11.2381 3.64123 11.2106 3.69619L6.02878 14.0598C6.00985 14.0977 6 14.1395 6 14.1818C6 14.2242 6.00985 14.2659 6.02878 14.3038L8.48332 19.2129C8.50598 19.2582 8.5408 19.2963 8.58389 19.3229C8.62698 19.3495 8.67663 19.3636 8.72728 19.3636H15.2727C15.3234 19.3636 15.373 19.3495 15.4161 19.3229C15.4592 19.2963 15.494 19.2582 15.5167 19.2129L17.9712 14.3038C17.9902 14.2659 18 14.2242 18 14.1818C18 14.1395 17.9902 14.0977 17.9712 14.0598Z" fill="#FFBA00"/>
<path d="M15.1028 1.63636H19.9091C19.9814 1.63636 20.0508 1.60763 20.1019 1.55648C20.1531 1.50534 20.1818 1.43597 20.1818 1.36364C20.1818 1.2913 20.1531 1.22194 20.1019 1.17079C20.0508 1.11964 19.9814 1.09091 19.9091 1.09091H12.8182C12.7459 1.09091 12.6765 1.11964 12.6253 1.17079C12.5742 1.22194 12.5455 1.2913 12.5455 1.36364C12.5455 1.36724 12.5474 1.37024 12.5475 1.37381L12.5467 1.3767C12.5433 1.41236 12.5471 1.44833 12.5576 1.48254C12.5682 1.51676 12.5854 1.54856 12.6083 1.57611C12.6312 1.60366 12.6593 1.62644 12.691 1.64313C12.7227 1.65982 12.7573 1.67009 12.793 1.67337C14.8926 1.86112 16.8451 2.83039 18.264 4.38928C19.6828 5.94817 20.4646 7.98301 20.4545 10.0909C20.4545 10.1632 20.4833 10.2326 20.5344 10.2838C20.5856 10.3349 20.6549 10.3636 20.7273 10.3636C20.7996 10.3636 20.869 10.3349 20.9201 10.2838C20.9713 10.2326 21 10.1632 21 10.0909C21.0084 8.24568 20.4463 6.44296 19.3906 4.92951C18.3349 3.41606 16.8373 2.26587 15.1028 1.63636Z" fill="#2D64BC"/>
<path d="M11.1818 1.09091H4.09091C4.01858 1.09091 3.94921 1.11964 3.89806 1.17079C3.84692 1.22194 3.81818 1.2913 3.81818 1.36364C3.81818 1.43597 3.84692 1.50534 3.89806 1.55648C3.94921 1.60763 4.01858 1.63636 4.09091 1.63636H8.89724C7.16268 2.26587 5.66508 3.41606 4.60941 4.92951C3.55375 6.44296 2.99163 8.24568 3 10.0909C3 10.1632 3.02873 10.2326 3.07988 10.2838C3.13103 10.3349 3.2004 10.3636 3.27273 10.3636C3.34506 10.3636 3.41443 10.3349 3.46558 10.2838C3.51672 10.2326 3.54546 10.1632 3.54546 10.0909C3.53538 7.98301 4.31717 5.94817 5.73605 4.38928C7.15493 2.83039 9.10744 1.86112 11.207 1.67337C11.2427 1.67009 11.2773 1.65982 11.309 1.64313C11.3407 1.62644 11.3688 1.60366 11.3917 1.57611C11.4146 1.54856 11.4318 1.51676 11.4424 1.48254C11.4529 1.44833 11.4567 1.41236 11.4533 1.3767L11.4525 1.37384C11.4526 1.37024 11.4545 1.36724 11.4545 1.36364C11.4545 1.2913 11.4258 1.22194 11.3747 1.17079C11.3235 1.11964 11.2542 1.09091 11.1818 1.09091Z" fill="#2D64BC"/>
<path d="M15.8182 20.4545H8.18183C8.03121 20.4545 7.9091 20.5767 7.9091 20.7273V23.4545C7.9091 23.6052 8.03121 23.7273 8.18183 23.7273H15.8182C15.9688 23.7273 16.0909 23.6052 16.0909 23.4545V20.7273C16.0909 20.5767 15.9688 20.4545 15.8182 20.4545Z" fill="#FFBA00"/>
<path d="M16.6364 18.8182H7.36364C7.21302 18.8182 7.09091 18.9403 7.09091 19.0909V20.7273C7.09091 20.8779 7.21302 21 7.36364 21H16.6364C16.787 21 16.9091 20.8779 16.9091 20.7273V19.0909C16.9091 18.9403 16.787 18.8182 16.6364 18.8182Z" fill="#FF8E00"/>
<path d="M12.8182 0.272727H11.1818C11.0312 0.272727 10.9091 0.394831 10.9091 0.545454V2.18182C10.9091 2.33244 11.0312 2.45455 11.1818 2.45455H12.8182C12.9688 2.45455 13.0909 2.33244 13.0909 2.18182V0.545454C13.0909 0.394831 12.9688 0.272727 12.8182 0.272727Z" fill="#6499F3"/>
<path d="M4.09091 9.81818H2.45455C2.30393 9.81818 2.18182 9.94029 2.18182 10.0909V11.7273C2.18182 11.8779 2.30393 12 2.45455 12H4.09091C4.24154 12 4.36364 11.8779 4.36364 11.7273V10.0909C4.36364 9.94029 4.24154 9.81818 4.09091 9.81818Z" fill="#6499F3"/>
<path d="M21.5455 9.81818H19.9091C19.7585 9.81818 19.6364 9.94029 19.6364 10.0909V11.7273C19.6364 11.8779 19.7585 12 19.9091 12H21.5455C21.6961 12 21.8182 11.8779 21.8182 11.7273V10.0909C21.8182 9.94029 21.6961 9.81818 21.5455 9.81818Z" fill="#6499F3"/>
<path d="M20.7273 2.45455C21.3298 2.45455 21.8182 1.96613 21.8182 1.36364C21.8182 0.761144 21.3298 0.272727 20.7273 0.272727C20.1248 0.272727 19.6364 0.761144 19.6364 1.36364C19.6364 1.96613 20.1248 2.45455 20.7273 2.45455Z" fill="#6499F3"/>
<path d="M3.27273 2.45455C3.87523 2.45455 4.36364 1.96613 4.36364 1.36364C4.36364 0.761144 3.87523 0.272727 3.27273 0.272727C2.67024 0.272727 2.18182 0.761144 2.18182 1.36364C2.18182 1.96613 2.67024 2.45455 3.27273 2.45455Z" fill="#6499F3"/>
</svg>
