<svg width="24" height="24" viewBox="0 0 24 24" fill="none" xmlns="http://www.w3.org/2000/svg">
<path fill-rule="evenodd" clip-rule="evenodd" d="M22.2163 8.91263V5.48583H23.127C23.1605 5.48583 23.1893 5.4698 23.2068 5.4413C23.2245 5.4128 23.2259 5.37994 23.211 5.34999L21.1091 1.14413C21.0765 1.07897 21.0141 1.04039 20.9413 1.04034C20.8684 1.04034 20.806 1.07892 20.7734 1.14413L18.6715 5.34999C18.6566 5.37994 18.6581 5.41284 18.6757 5.4413C18.6932 5.46975 18.722 5.48583 18.7555 5.48583H19.6661V8.91263C19.6661 9.04177 19.7715 9.14714 19.9007 9.14714H21.9818C22.111 9.14714 22.2163 9.04177 22.2163 8.91263Z" fill="#6CF5C2"/>
<path fill-rule="evenodd" clip-rule="evenodd" d="M22.2163 8.91263V5.48583H21.7476V8.91263C21.7476 9.04177 21.6423 9.14714 21.5131 9.14714H21.9818C22.111 9.14714 22.2163 9.04177 22.2163 8.91263ZM22.6582 5.48583C22.6917 5.48583 22.7205 5.4698 22.7381 5.4413C22.7557 5.4128 22.7571 5.37994 22.7422 5.34999L20.7068 1.2773L20.7734 1.14417C20.806 1.07902 20.8683 1.04039 20.9412 1.04039C21.0141 1.04039 21.0765 1.07897 21.1091 1.14417L23.2109 5.35003C23.2259 5.37999 23.2244 5.41289 23.2068 5.44134C23.1892 5.4698 23.1604 5.48588 23.127 5.48588L22.6582 5.48583Z" fill="#00E499"/>
<path fill-rule="evenodd" clip-rule="evenodd" d="M19.9073 10.4845H21.9752C22.1043 10.4845 22.2097 10.5899 22.2097 10.719V22.7251C22.2097 22.8542 22.1044 22.9596 21.9752 22.9596H19.9073C19.7781 22.9596 19.6727 22.8542 19.6727 22.7251V10.719C19.6727 10.5899 19.7781 10.4845 19.9073 10.4845Z" fill="#E3A76F"/>
<path fill-rule="evenodd" clip-rule="evenodd" d="M21.5065 10.4845H21.9752C22.1043 10.4845 22.2097 10.5899 22.2097 10.719V22.7251C22.2097 22.8542 22.1044 22.9596 21.9752 22.9596H21.5065C21.6356 22.9596 21.741 22.8542 21.741 22.7251V10.719C21.741 10.5899 21.6356 10.4845 21.5065 10.4845Z" fill="#C48958"/>
<path fill-rule="evenodd" clip-rule="evenodd" d="M17.2646 12.8798H15.1967C15.0676 12.8798 14.9622 12.9852 14.9622 13.1144V22.7251C14.9622 22.8543 15.0675 22.9596 15.1967 22.9596H17.2646C17.3938 22.9596 17.4992 22.8543 17.4992 22.7251V13.1144C17.4991 12.9852 17.3938 12.8798 17.2646 12.8798Z" fill="#8AC9FE"/>
<path fill-rule="evenodd" clip-rule="evenodd" d="M17.2646 12.8798H16.7959C16.925 12.8798 17.0304 12.9852 17.0304 13.1144V22.7251C17.0304 22.8543 16.9251 22.9596 16.7959 22.9596H17.2646C17.3938 22.9596 17.4992 22.8543 17.4992 22.7251V13.1144C17.4991 12.9852 17.3938 12.8798 17.2646 12.8798Z" fill="#60B7FF"/>
<path fill-rule="evenodd" clip-rule="evenodd" d="M12.5539 15.5426C11.8646 15.5426 11.1753 15.5426 10.4859 15.5426C10.3568 15.5426 10.2514 15.6479 10.2514 15.7771V22.7251C10.2514 22.8543 10.3568 22.9597 10.4859 22.9597H12.5539C12.6831 22.9597 12.7885 22.8543 12.7885 22.7251C12.7885 20.2538 12.7885 18.2484 12.7885 15.7771C12.7885 15.6479 12.6831 15.5426 12.5539 15.5426Z" fill="#6CF5C2"/>
<path fill-rule="evenodd" clip-rule="evenodd" d="M12.5539 15.5426H12.0852C12.2143 15.5426 12.3197 15.6479 12.3197 15.7771V22.7251C12.3197 22.8543 12.2144 22.9597 12.0852 22.9597H12.5539C12.6831 22.9597 12.7885 22.8543 12.7885 22.7251C12.7885 20.2538 12.7885 18.2484 12.7885 15.7771C12.7885 15.6479 12.6831 15.5426 12.5539 15.5426Z" fill="#00E499"/>
<path fill-rule="evenodd" clip-rule="evenodd" d="M5.77529 18.0926H7.84322C7.97237 18.0926 8.07774 18.1979 8.07774 18.3271V22.7251C8.07774 22.8542 7.97241 22.9596 7.84322 22.9596H5.77529C5.64615 22.9596 5.54077 22.8543 5.54077 22.7251V18.3271C5.54077 18.1979 5.6461 18.0926 5.77529 18.0926Z" fill="#FFE177"/>
<path fill-rule="evenodd" clip-rule="evenodd" d="M7.37442 18.0926H7.84317C7.97231 18.0926 8.07769 18.1979 8.07769 18.3271V22.7251C8.07769 22.8542 7.97236 22.9596 7.84317 22.9596H7.37442C7.50356 22.9596 7.60894 22.8543 7.60894 22.7251V18.3271C7.60894 18.1979 7.50361 18.0926 7.37442 18.0926Z" fill="#FFD064"/>
<path d="M7.153 18.8184C10.4565 18.8184 13.1346 16.1404 13.1346 12.8369C13.1346 9.53333 10.4565 6.85528 7.153 6.85528C3.84946 6.85528 1.17142 9.53333 1.17142 12.8369C1.17142 16.1404 3.84946 18.8184 7.153 18.8184Z" fill="#FE646F"/>
<path fill-rule="evenodd" clip-rule="evenodd" d="M7.15298 6.85528C10.4565 6.85528 13.1346 9.53334 13.1346 12.8369C13.1346 16.1404 10.4565 18.8184 7.15298 18.8184C6.9952 18.8184 6.83892 18.8122 6.68423 18.8003C9.76866 18.5611 12.1971 15.9826 12.1971 12.8369C12.1971 9.69108 9.76866 7.11258 6.68423 6.87347C6.83892 6.86147 6.99525 6.85528 7.15298 6.85528Z" fill="#FD4755"/>
<path d="M9.86122 15.5466C11.3581 14.0497 11.3581 11.6228 9.86122 10.1259C8.36432 8.62898 5.93737 8.62898 4.44048 10.1259C2.94358 11.6228 2.94358 14.0497 4.44048 15.5466C5.93737 17.0435 8.36432 17.0435 9.86122 15.5466Z" fill="#ECEFF1"/>
<path fill-rule="evenodd" clip-rule="evenodd" d="M7.15299 9.00323C7.23174 9.00323 7.30979 9.00591 7.38737 9.01059C5.37929 9.13172 3.78812 10.7984 3.78812 12.8369C3.78812 14.8754 5.37929 16.542 7.38737 16.6632C7.30979 16.6679 7.23174 16.6705 7.15299 16.6705C5.03574 16.6705 3.31937 14.9541 3.31937 12.8369C3.31941 10.7196 5.03579 9.00323 7.15299 9.00323Z" fill="#D1D1D6"/>
<path d="M8.65913 13.1982C8.85593 12.3656 8.34054 11.5311 7.50795 11.3343C6.67537 11.1375 5.84088 11.6529 5.64407 12.4855C5.44726 13.3181 5.96266 14.1526 6.79525 14.3494C7.62783 14.5462 8.46232 14.0308 8.65913 13.1982Z" fill="#FE646F"/>
<path fill-rule="evenodd" clip-rule="evenodd" d="M7.153 11.2875C7.23268 11.2875 7.31097 11.2935 7.38737 11.3051C6.6429 11.4181 6.07239 12.0608 6.07239 12.8368C6.07239 13.6128 6.6429 14.2555 7.38737 14.3685C7.31097 14.3801 7.23268 14.3861 7.153 14.3861C6.29734 14.3861 5.60364 13.6924 5.60364 12.8368C5.60368 11.9812 6.29734 11.2875 7.153 11.2875Z" fill="#FD4755"/>
<path fill-rule="evenodd" clip-rule="evenodd" d="M17.2103 5.75433L14.605 8.35978C14.5818 8.38298 14.5509 8.39208 14.5188 8.38519L12.1807 7.88128C12.1438 7.87331 12.1166 7.84617 12.1087 7.80928L11.6047 5.47111C11.5978 5.439 11.6069 5.40816 11.6302 5.38495L14.2355 2.77955C14.2605 2.75461 14.2946 2.74589 14.3284 2.75588C14.3623 2.76586 14.3862 2.79164 14.3937 2.82614L14.8721 5.04591C14.88 5.0828 14.9072 5.10994 14.9441 5.11791L17.1638 5.59627C17.1983 5.60367 17.2241 5.62767 17.2341 5.66152C17.244 5.69527 17.2353 5.72934 17.2103 5.75433Z" fill="#E3A76F"/>
<path fill-rule="evenodd" clip-rule="evenodd" d="M17.2103 5.75433L14.605 8.35978C14.5818 8.38298 14.5509 8.39208 14.5188 8.38519L12.1807 7.88128C12.1438 7.87331 12.1166 7.84617 12.1087 7.80928L11.6048 5.47111C11.6038 5.4668 11.6032 5.46248 11.6028 5.45822L12.0085 7.34058C12.0164 7.37747 12.0436 7.40461 12.0805 7.41258L14.4187 7.91648C14.4508 7.92342 14.4816 7.91433 14.5048 7.89108L16.8641 5.53167L17.1638 5.59622C17.1983 5.60363 17.224 5.62763 17.234 5.66147C17.244 5.69527 17.2353 5.72934 17.2103 5.75433Z" fill="#C48958"/>
<path fill-rule="evenodd" clip-rule="evenodd" d="M7.41815 13.102C7.27172 13.2484 7.03429 13.2484 6.8879 13.102C6.74147 12.9555 6.74147 12.7181 6.8879 12.5717L15.946 3.51356C16.0925 3.36713 16.3299 3.36713 16.4763 3.51356C16.6227 3.66 16.6227 3.89742 16.4763 4.04381L7.41815 13.102Z" fill="#837683"/>
<path fill-rule="evenodd" clip-rule="evenodd" d="M3.31576 20.8233V22.725C3.31576 22.8542 3.21043 22.9596 3.08125 22.9596H1.01335C0.884214 22.9596 0.778839 22.8542 0.778839 22.725V20.8233C0.778839 20.6942 0.884167 20.5888 1.01335 20.5888H3.08125C3.21039 20.5889 3.31576 20.6942 3.31576 20.8233Z" fill="#FE646F"/>
<path fill-rule="evenodd" clip-rule="evenodd" d="M3.31575 20.8233V22.725C3.31575 22.8542 3.21043 22.9596 3.08124 22.9596H2.61249C2.74163 22.9596 2.847 22.8542 2.847 22.725V20.8233C2.847 20.6942 2.74168 20.5888 2.61249 20.5888H3.08124C3.21038 20.5889 3.31575 20.6942 3.31575 20.8233Z" fill="#FD4755"/>
</svg>
