<svg width="24" height="24" viewBox="0 0 24 24" fill="none" xmlns="http://www.w3.org/2000/svg">
<g clip-path="url(#clip0_3381_443)">
<path d="M21.4688 10.7812H2.53125C1.28861 10.7812 0.28125 11.7886 0.28125 13.0312V21.4688C0.28125 22.7114 1.28861 23.7188 2.53125 23.7188H21.4688C22.7114 23.7188 23.7188 22.7114 23.7188 21.4688V13.0312C23.7188 11.7886 22.7114 10.7812 21.4688 10.7812Z" fill="#03A9F4"/>
<path d="M22.0312 20.9062V13.5938C22.0312 12.9724 21.5276 12.4688 20.9062 12.4688H3.09375C2.47243 12.4688 1.96875 12.9724 1.96875 13.5938V20.9062C1.96875 21.5276 2.47243 22.0312 3.09375 22.0312H20.9062C21.5276 22.0312 22.0312 21.5276 22.0312 20.9062Z" fill="#ECEFF1"/>
<path d="M21.5398 2.07188L20.4791 3.13256C20.4262 3.18463 20.3841 3.24667 20.3552 3.31509C20.3264 3.38352 20.3114 3.45697 20.3111 3.53123C20.3108 3.60548 20.3252 3.67906 20.3534 3.74772C20.3817 3.81638 20.4233 3.87877 20.4758 3.93128C20.5283 3.98379 20.5907 4.02539 20.6593 4.05368C20.728 4.08196 20.8015 4.09637 20.8758 4.09608C20.9501 4.09578 21.0235 4.08079 21.0919 4.05197C21.1604 4.02314 21.2224 3.98105 21.2745 3.92813L22.3352 2.86744C22.4393 2.76167 22.4973 2.61906 22.4968 2.47067C22.4962 2.32228 22.437 2.18013 22.3321 2.07519C22.2271 1.97025 22.085 1.91102 21.9366 1.9104C21.7882 1.90978 21.6456 1.96782 21.5398 2.07188Z" fill="#FFB300"/>
<path d="M21.5398 8.80312L20.4791 7.74244C20.4262 7.69037 20.3841 7.62833 20.3552 7.55991C20.3264 7.49148 20.3114 7.41803 20.3111 7.34377C20.3108 7.26952 20.3252 7.19594 20.3534 7.12728C20.3817 7.05861 20.4233 6.99623 20.4758 6.94372C20.5283 6.8912 20.5907 6.84961 20.6593 6.82132C20.728 6.79304 20.8015 6.77863 20.8758 6.77892C20.9501 6.77922 21.0235 6.79421 21.0919 6.82303C21.1604 6.85186 21.2224 6.89395 21.2745 6.94687L22.3352 8.00756C22.3881 8.05963 22.4302 8.12167 22.4591 8.19009C22.4879 8.25851 22.5029 8.33197 22.5032 8.40623C22.5035 8.48048 22.4892 8.55406 22.4609 8.62272C22.4326 8.69138 22.391 8.75377 22.3385 8.80628C22.286 8.85879 22.2237 8.90039 22.155 8.92868C22.0863 8.95696 22.0128 8.97137 21.9385 8.97108C21.8643 8.97078 21.7908 8.95579 21.7224 8.92697C21.6539 8.89814 21.5919 8.85605 21.5398 8.80312Z" fill="#FFB300"/>
<path d="M2.46018 2.07187L3.52087 3.13256C3.62495 3.23833 3.68303 3.38094 3.68244 3.52933C3.68185 3.67772 3.62266 3.81986 3.51774 3.92481C3.41282 4.02975 3.27069 4.08898 3.1223 4.0896C2.97391 4.09022 2.83129 4.03218 2.7255 3.92812L1.66481 2.86744C1.61187 2.81537 1.56977 2.75333 1.54093 2.68491C1.51208 2.61648 1.49707 2.54303 1.49676 2.46877C1.49645 2.39452 1.51084 2.32094 1.53911 2.25228C1.56738 2.18361 1.60896 2.12123 1.66146 2.06872C1.71396 2.0162 1.77634 1.97461 1.845 1.94632C1.91365 1.91804 1.98723 1.90363 2.06148 1.90392C2.13573 1.90422 2.2092 1.91921 2.27763 1.94803C2.34606 1.97686 2.4081 2.01895 2.46018 2.07187Z" fill="#FFB300"/>
<path d="M2.46018 8.80312L3.52087 7.74244C3.57381 7.69037 3.61591 7.62833 3.64476 7.55991C3.6736 7.49148 3.68861 7.41803 3.68892 7.34377C3.68923 7.26952 3.67484 7.19594 3.64657 7.12728C3.6183 7.05861 3.57672 6.99623 3.52422 6.94372C3.47172 6.8912 3.40934 6.84961 3.34069 6.82132C3.27203 6.79304 3.19845 6.77863 3.1242 6.77892C3.04995 6.77922 2.97649 6.79421 2.90806 6.82303C2.83962 6.85186 2.77758 6.89395 2.7255 6.94687L1.66481 8.00756C1.61187 8.05963 1.56977 8.12167 1.54093 8.19009C1.51208 8.25851 1.49707 8.33197 1.49676 8.40623C1.49645 8.48048 1.51084 8.55406 1.53911 8.62272C1.56738 8.69138 1.60896 8.75377 1.66146 8.80628C1.71396 8.85879 1.77634 8.90039 1.845 8.92868C1.91365 8.95696 1.98723 8.97137 2.06148 8.97108C2.13573 8.97078 2.2092 8.95579 2.27763 8.92697C2.34606 8.89814 2.4081 8.85605 2.46018 8.80312Z" fill="#FFB300"/>
<path d="M12.9583 1.37062L14.3812 3.68344C14.5369 3.93644 14.7863 4.11761 15.075 4.18744L17.7141 4.82494C17.9009 4.8701 18.073 4.96236 18.214 5.09291C18.355 5.22347 18.4602 5.38798 18.5196 5.57074C18.579 5.75351 18.5906 5.94844 18.5533 6.13696C18.5159 6.32547 18.4309 6.50128 18.3064 6.64762L16.5459 8.71594C16.3534 8.94217 16.2582 9.23537 16.281 9.53156L16.4895 12.2387C16.5043 12.4303 16.4697 12.6225 16.3891 12.7969C16.3085 12.9714 16.1846 13.1223 16.0291 13.2352C15.8736 13.3482 15.6918 13.4194 15.501 13.4422C15.3102 13.4649 15.1167 13.4384 14.9391 13.3652L12.4288 12.3302C12.1542 12.2169 11.8458 12.2169 11.5712 12.3302L9.06094 13.3652C8.88327 13.4384 8.68981 13.4649 8.49899 13.4422C8.30818 13.4194 8.12637 13.3482 7.9709 13.2352C7.81544 13.1223 7.6915 12.9714 7.6109 12.7969C7.53031 12.6225 7.49574 12.4303 7.5105 12.2387L7.719 9.53156C7.74184 9.23537 7.6466 8.94217 7.45406 8.71594L5.694 6.64837C5.56944 6.50203 5.48444 6.32622 5.44711 6.13771C5.40978 5.9492 5.42137 5.75426 5.48076 5.57149C5.54015 5.38873 5.64537 5.22422 5.78639 5.09366C5.92741 4.96311 6.09952 4.87085 6.28631 4.82569L8.92537 4.18819C9.21409 4.11836 9.46348 3.93719 9.61912 3.68419L11.0417 1.37062C11.1424 1.20691 11.2833 1.07171 11.4511 0.977933C11.6188 0.884152 11.8078 0.834914 12 0.834914C12.1922 0.834914 12.3812 0.884152 12.5489 0.977933C12.7167 1.07171 12.8576 1.20691 12.9583 1.37062Z" fill="#FFB300"/>
<path d="M14.6775 4.00312L12 7.68937V0.834375C12.1924 0.83332 12.3819 0.882168 12.5498 0.976153C12.7177 1.07014 12.8584 1.20605 12.9581 1.37062L14.3812 3.6825C14.4582 3.80763 14.5588 3.91655 14.6775 4.00312Z" fill="#FFA000"/>
<path d="M12 7.68937L7.97062 13.2338C7.81466 13.1215 7.69039 12.9709 7.6099 12.7964C7.5294 12.6219 7.49542 12.4296 7.51125 12.2381L7.71937 9.53063C7.7303 9.38421 7.71247 9.23707 7.66687 9.0975L12 7.68937Z" fill="#FFA000"/>
<path d="M18.3056 6.64875L16.5469 8.715C16.4514 8.82738 16.3788 8.95731 16.3331 9.0975L12 7.68937L18.5175 5.57062C18.5785 5.7533 18.5911 5.94869 18.554 6.13767C18.5168 6.32666 18.4312 6.50276 18.3056 6.64875Z" fill="#FFA000"/>
<path d="M9.3225 4.00313L12 7.68937L5.4825 5.57062C5.54065 5.38752 5.64535 5.22266 5.78635 5.09218C5.92736 4.9617 6.09982 4.87006 6.28687 4.82625L8.925 4.18688C9.06819 4.15207 9.20321 4.08965 9.3225 4.00313Z" fill="#FFA000"/>
<path d="M16.0275 13.2338C15.8729 13.3482 15.6912 13.4205 15.5002 13.4435C15.3092 13.4665 15.1155 13.4395 14.9381 13.365L12.4294 12.33C12.2931 12.2742 12.1473 12.2455 12 12.2456V7.68937L16.0275 13.2338Z" fill="#FFA000"/>
<path d="M10.9688 19.4062C11.0433 19.4062 11.1149 19.3766 11.1676 19.3239C11.2204 19.2711 11.25 19.1996 11.25 19.125V17.7188H12.75V19.125C12.75 19.1996 12.7796 19.2711 12.8324 19.3239C12.8851 19.3766 12.9567 19.4062 13.0312 19.4062C13.1058 19.4062 13.1774 19.3766 13.2301 19.3239C13.2829 19.2711 13.3125 19.1996 13.3125 19.125V16.4062C13.3125 16.0582 13.1742 15.7243 12.9281 15.4782C12.6819 15.232 12.3481 15.0938 12 15.0938C11.6519 15.0938 11.3181 15.232 11.0719 15.4782C10.8258 15.7243 10.6875 16.0582 10.6875 16.4062V19.125C10.6875 19.1996 10.7171 19.2711 10.7699 19.3239C10.8226 19.3766 10.8942 19.4062 10.9688 19.4062ZM11.25 16.4062C11.25 16.2073 11.329 16.0166 11.4697 15.8759C11.6103 15.7353 11.8011 15.6562 12 15.6562C12.1989 15.6562 12.3897 15.7353 12.5303 15.8759C12.671 16.0166 12.75 16.2073 12.75 16.4062V17.1562H11.25V16.4062Z" fill="#0288D1"/>
<path d="M18.375 19.4062H19.2804C19.6369 19.4059 19.9787 19.2641 20.2307 19.012C20.4828 18.7599 20.6246 18.4182 20.625 18.0617V16.4383C20.6246 16.0818 20.4828 15.7401 20.2307 15.488C19.9787 15.2359 19.6369 15.0941 19.2804 15.0938H18.375C18.2258 15.0938 18.0827 15.153 17.9773 15.2585C17.8718 15.364 17.8125 15.5071 17.8125 15.6562V18.8438C17.8125 18.9929 17.8718 19.136 17.9773 19.2415C18.0827 19.347 18.2258 19.4062 18.375 19.4062ZM18.375 15.6562H19.2804C19.4878 15.6565 19.6866 15.739 19.8332 15.8856C19.9798 16.0322 20.0623 16.231 20.0625 16.4383V18.0617C20.0623 18.269 19.9798 18.4678 19.8332 18.6144C19.6866 18.761 19.4878 18.8435 19.2804 18.8438H18.375V15.6562Z" fill="#0288D1"/>
<path d="M5.19825 15.0938H4.125C3.97582 15.0938 3.83274 15.153 3.72725 15.2585C3.62176 15.364 3.5625 15.5071 3.5625 15.6562V18.8438C3.5625 18.9929 3.62176 19.136 3.72725 19.2415C3.83274 19.347 3.97582 19.4062 4.125 19.4062H5.19825C5.51024 19.4059 5.80935 19.2818 6.02995 19.0612C6.25056 18.8406 6.37465 18.5415 6.375 18.2295V18.1455C6.37496 17.975 6.33778 17.8066 6.26606 17.652C6.19434 17.4973 6.08979 17.3602 5.95969 17.25C6.08979 17.1398 6.19434 17.0027 6.26606 16.848C6.33778 16.6934 6.37496 16.525 6.375 16.3545V16.2705C6.37465 15.9585 6.25056 15.6594 6.02995 15.4388C5.80935 15.2182 5.51024 15.0941 5.19825 15.0938ZM5.8125 18.2295C5.8123 18.3923 5.74752 18.5485 5.63237 18.6636C5.51722 18.7788 5.3611 18.8436 5.19825 18.8438H4.125V17.5312H5.19825C5.3611 17.5314 5.51722 17.5962 5.63237 17.7114C5.74752 17.8265 5.8123 17.9827 5.8125 18.1455V18.2295ZM5.8125 16.3545C5.8123 16.5173 5.74752 16.6735 5.63237 16.7886C5.51722 16.9038 5.3611 16.9686 5.19825 16.9688H4.125V15.6562H5.19825C5.3611 15.6564 5.51722 15.7212 5.63237 15.8364C5.74752 15.9515 5.8123 16.1077 5.8125 16.2705V16.3545Z" fill="#0288D1"/>
<path d="M14.5312 19.4062C14.6058 19.4062 14.6774 19.3766 14.7301 19.3239C14.7829 19.2711 14.8125 19.1996 14.8125 19.125V16.3337L16.1625 19.1548C16.1994 19.231 16.261 19.2925 16.3373 19.3292C16.4136 19.366 16.5001 19.3758 16.5827 19.3571C16.6653 19.3385 16.7391 19.2924 16.7922 19.2264C16.8453 19.1604 16.8745 19.0784 16.875 18.9938V15.375C16.875 15.3004 16.8454 15.2289 16.7926 15.1761C16.7399 15.1234 16.6683 15.0938 16.5938 15.0938C16.5192 15.0938 16.4476 15.1234 16.3949 15.1761C16.3421 15.2289 16.3125 15.3004 16.3125 15.375V18.1663L14.9625 15.3452C14.9256 15.269 14.864 15.2075 14.7877 15.1708C14.7114 15.134 14.6249 15.1242 14.5423 15.1429C14.4597 15.1615 14.3859 15.2076 14.3328 15.2736C14.2797 15.3396 14.2505 15.4216 14.25 15.5062V19.125C14.25 19.1996 14.2796 19.2711 14.3324 19.3239C14.3851 19.3766 14.4567 19.4062 14.5312 19.4062Z" fill="#0288D1"/>
<path d="M7.125 15.6562V19.125C7.125 19.1996 7.15463 19.2711 7.20738 19.3239C7.26012 19.3766 7.33166 19.4062 7.40625 19.4062C7.48084 19.4062 7.55238 19.3766 7.60512 19.3239C7.65787 19.2711 7.6875 19.1996 7.6875 19.125V17.8005L9.37331 19.3331C9.40064 19.358 9.4326 19.3772 9.46736 19.3897C9.50212 19.4022 9.539 19.4077 9.57589 19.4059C9.61278 19.4042 9.64897 19.3952 9.68238 19.3794C9.7158 19.3637 9.74578 19.3415 9.77063 19.3142C9.79547 19.2869 9.81469 19.2549 9.82718 19.2201C9.83968 19.1854 9.8452 19.1485 9.84344 19.1116C9.84168 19.0747 9.83268 19.0385 9.81693 19.0051C9.80119 18.9717 9.77902 18.9417 9.75169 18.9169L8.2275 17.5312H8.71875C9.04198 17.5312 9.35198 17.4028 9.58054 17.1743C9.8091 16.9457 9.9375 16.6357 9.9375 16.3125C9.9375 15.9893 9.8091 15.6793 9.58054 15.4507C9.35198 15.2222 9.04198 15.0938 8.71875 15.0938H7.6875C7.53832 15.0938 7.39524 15.153 7.28975 15.2585C7.18426 15.364 7.125 15.5071 7.125 15.6562ZM7.6875 15.6562H8.71875C8.8928 15.6562 9.05972 15.7254 9.18279 15.8485C9.30586 15.9715 9.375 16.1385 9.375 16.3125C9.375 16.4865 9.30586 16.6535 9.18279 16.7765C9.05972 16.8996 8.8928 16.9688 8.71875 16.9688H7.6875V15.6562Z" fill="#0288D1"/>
</g>
<defs>
<clipPath id="clip0_3381_443">
<rect width="24" height="24" fill="white"/>
</clipPath>
</defs>
</svg>
