<svg width="24" height="24" viewBox="0 0 24 24" fill="none" xmlns="http://www.w3.org/2000/svg">
<g clip-path="url(#clip0_1617_52548)">
<path d="M12.7087 2.29303L21.7087 11.293C22.3387 11.923 21.8927 13 21.0017 13H20.0017V19C20.0017 19.7957 19.6857 20.5587 19.1231 21.1214C18.5605 21.684 17.7974 22 17.0017 22H16.0017V15C16.0018 14.2348 15.7094 13.4985 15.1845 12.9418C14.6595 12.385 13.9416 12.0499 13.1777 12.005L13.0017 12H11.0017C10.2061 12 9.44304 12.3161 8.88043 12.8787C8.31782 13.4413 8.00175 14.2044 8.00175 15V22H7.00175C6.2061 22 5.44304 21.684 4.88043 21.1214C4.31782 20.5587 4.00175 19.7957 4.00175 19V13H3.00175C2.11175 13 1.66475 11.923 2.29475 11.293L11.2947 2.29303C11.4823 2.10556 11.7366 2.00024 12.0017 2.00024C12.2669 2.00024 12.5212 2.10556 12.7087 2.29303ZM13.0017 14C13.267 14 13.5213 14.1054 13.7089 14.2929C13.8964 14.4805 14.0017 14.7348 14.0017 15V22H10.0017V15C10.0018 14.7551 10.0917 14.5187 10.2545 14.3357C10.4172 14.1526 10.6415 14.0357 10.8847 14.007L11.0017 14H13.0017Z" fill="#007456"/>
</g>
<defs>
<clipPath id="clip0_1617_52548">
<rect width="24" height="24" fill="white"/>
</clipPath>
</defs>
</svg>
